<svg xmlns="http://www.w3.org/2000/svg" xmlns:xlink="http://www.w3.org/1999/xlink" xmlns:lucid="lucid" width="1340" height="938.55"><g transform="translate(-80 -380)" lucid:page-tab-id="0_0"><path d="M1032.7 400c1.1 9 13.2 13.48 17.6 21.57 5.5 5.4 15.4 17.97 20.9 26.05 5.5 9 12.1 17.97 14.3 18.87 1.1 1.8 6.6 8.08 11 13.47 8.8 11.68 31.9 34.15 47.3 46.73 5.5 4.5 13.2 10.78 15.4 13.47 7.7 6.3 11 5.4 7.7-.9-1.1-2.7-3.3-8.98-5.5-16.17-1.1-6.3-3.3-12.58-4.4-14.38-4.4-11.68-8.8-22.46-15.4-33.24-3.3-6.3-7.7-13.48-13.2-18.87-5.5-8.98-15.4-16.17-23.1-23.35-19.8-13.48-41.8-22.47-64.9-30.55-3.3-1.8-6.6-2.7-7.7-2.7zm-577.5 7.2c-14.3 0-28.6 11.67-41.8 16.16-18.7 9-29.7 16.18-42.9 29.65-11 11.7-28.6 38.65-30.8 47.64-1.1 7.2-6.6 26.06-9.9 34.14-1.1 3.6-3.3 9-3.3 10.8-2.2 7.17 1.1 5.38 11-3.6 4.4-4.5 11-9.9 15.4-13.5 3.3-2.68 8.8-6.28 11-8.97 2.2-1.8 8.8-8.08 14.3-13.47 5.5-4.5 13.2-14.38 18.7-21.57 4.4-6.3 13.2-18.87 19.8-27.85 8.8-10.77 16.5-22.46 26.4-32.34 7.7-8.98 15.4-16.17 15.4-17.07h-3.3zm680.9 44.02l8.8 8.98c4.4 5.4 8.8 9.9 9.9 10.8 8.8 12.57 14.3 26.04 16.5 41.32 2.2 5.4 4.4 15.27 6.6 22.46 1.1 6.3 4.4 17.97 6.6 25.16 6.6 21.57 6.6 22.47 4.4 22.47l-6.6-7.18c-13.2-15.28-16.5-17.97-40.7-35.05-7.7-5.4-15.4-10.78-17.6-12.58-2.2-1.8-6.6-5.4-9.9-7.2-6.6-3.6-9.9-8.08-22-24.26l-6.6-10.78 1.1 10.78c1.1 10.8 4.4 20.67 13.2 38.64 6.6 12.58 30.8 39.54 48.4 52.12 30.8 23.36 58.3 50.32 64.9 63.8 2.2 3.6 4.4 6.3 4.4 6.3 1.1-.9 1.1-26.97 1.1-58.42 0-60.2-1.1-67.4-11-88.06-13.2-26.95-44-53.9-66-58.4l-5.5-.9zm-785.4 8.08c-7.7 0-26.4 11.7-38.5 22.47-20.9 21.56-29.7 35.94-34.1 60.2-4.4 26.96-4.4 36.84-2.2 63.8 2.2 15.27 2.2 34.14 2.2 42.23-1.1 9.88 0 15.28 1.1 15.28s2.2-1.8 3.3-3.6c4.4-12.58 26.4-37.74 47.3-53 34.1-25.17 60.5-55.72 71.5-84.48 6.6-17.97 7.7-26.06 4.4-25.16-2.2 0-5.5 3.6-6.6 6.3-4.4 8.08-17.6 20.66-40.7 37.73-19.8 16.18-42.9 30.55-56.1 54.8-6.6 13.5-4.4 4.5 2.2-13.46 3.3-10.78 7.7-26.05 9.9-35.04 4.4-24.26 8.8-38.64 12.1-48.52 4.4-12.58 15.4-28.75 20.9-33.25 3.3-1.8 5.5-3.6 5.5-4.5 0-1.8-1.1-1.8-2.2-1.8zm872.3 62.9c-2.2.9-2.2 4.5 2.2 10.8 1.1 2.68 4.4 9.87 6.6 16.16 2.2 10.78 2.2 16.17 1.1 45.83-1.1 18.85-1.1 53-2.2 76.36 0 26.06 0 39.54-1.1 35.94-4.4-17.97-6.6-24.26-15.4-36.84-4.4-7.18-15.4-19.76-24.2-27.85-23.1-20.66-46.2-43.12-49.5-49.4-2.2-2.7-4.4-4.5-5.5-3.6-2.2 1.8 3.3 22.46 7.7 33.24 5.5 14.38 11 28.75 19.8 41.33 15.4 23.37 33 44.03 47.3 67.4 8.8 12.57 17.6 29.65 22 44.92 1.1 6.28 3.3 11.67 4.4 11.67 12.1-25.16 14.3-57.5 24.2-81.76 15.4-33.24 12.1-101.53-5.5-136.57-7.7-17.08-17.6-33.25-31.9-47.63zm-952.6 9c-3.3.9-11 9.87-17.6 22.45-7.7 12.58-14.3 25.16-19.8 38.64-1.1 2.7-2.2 8.08-3.3 11.67-5.5 36.84-6.6 75.48 7.7 110.52 2.2 6.28 6.6 18.86 9.9 28.75 3.3 8.98 6.6 18.87 7.7 21.56 1.1 4.5 2.2 13.5 3.3 16.2l2.2 7.17 1.1 6.3 3.3-5.4c1.1-2.7 3.3-9.88 4.4-15.27 4.4-15.28 19.8-38.64 28.6-52.12 8.8-12.58 17.6-25.16 18.7-27.85 8.8-11.7 17.6-23.37 24.2-36.84 0-.9 2.2-7.2 5.5-14.4 9.9-20.66 15.4-44.92 11-44.92-1.1 0-5.5 5.4-9.9 10.78-4.4 6.3-8.8 11.68-9.9 11.68-31.9 24.27-62.7 56.6-71.5 97.95-2.2 15.26-2.2 4.48 0-18.88 2.2-24.26 1.1-44.03-4.4-85.37-4.4-29.65-2.2-57.5 6.6-75.47 3.3-5.4 3.3-7.2 2.2-7.2zm1013.1 136.57c-1.1 0-1.1 5.4-2.2 19.77-2.2 26.95-8.8 53-19.8 78.17-12.1 24.27-22 49.43-26.4 75.5-2.2 12.57-4.4 8.07-4.4-10.8-1.1-17.97-2.2-26.05-9.9-40.43-4.4-9.88-6.6-19.77-13.2-27.85-12.1-16.18-20.9-34.15-29.7-52.12-3.3-5.4-5.5-10.78-5.5-12.58 0-4.5-3.3-2.7-4.4 2.7-2.2 8.98 1.1 38.63 9.9 74.58 4.4 21.56 15.4 61.1 22 79.07 6.6 17.07 8.8 35.04 7.7 55.7-2.2 21.57 0 24.27 6.6 14.38 1.1-2.7 15.4-21.56 29.7-41.33 15.4-19.77 29.7-39.53 31.9-44.93 24.2-50.33 28.6-124 8.8-168.04 0-.9 0-1.8-1.1-1.8zm-1071.4 8.98c-4.4 3.6-12.1 47.63-12.1 67.4 0 17.97 3.3 45.82 7.7 58.4 9.9 37.74 27.5 71 56.1 99.74 8.8 9.87 17.6 22.45 19.8 26.95 7.7 14.37 8.8 10.78 8.8-21.57 0-20.67 2.2-40.43 9.9-59.3 1.1-6.3 4.4-16.18 5.5-21.57 2.2-5.38 4.4-15.26 6.6-21.55 1.1-6.3 4.4-16.18 5.5-21.57 3.3-12.58 3.3-25.16 6.6-37.74 2.2-12.58 3.3-48.52 1.1-48.52-15.4 16.17-47.3 94.35-50.6 99.74-7.7 21.56-9.9 29.65-8.8 50.32 1.1 23.36-1.1 25.16-4.4 4.5-4.4-26.07-9.9-45.84-18.7-62-3.3-5.4-5.5-10.8-5.5-11.7 0-.9-2.2-7.18-5.5-14.37-3.3-7.18-6.6-13.47-6.6-14.36 0-.9-1.1-3.6-2.2-7.2-6.6-14.37-9.9-27.85-11-46.72 0-10.78-1.1-19.77-2.2-18.87zm964.7 137.48c-8.8 14.38-11 33.25-16.5 49.42-2.2 14.38-9.9 79.97-9.9 91.65 0 20.67-11 76.38-17.6 88.06-6.6 10.78-7.7 13.48-6.6 15.28 20.9-11.68 41.8-26.06 62.7-39.54 5.5-3.6 11-8.98 17.6-12.58 4.4-2.7 7.7-5.4 8.8-5.4 33-26.95 61.6-59.3 74.8-99.73 7.7-24.27 12.1-62.9 7.7-74.6-1.1-4.48-4.4 0-4.4 7.2 0 6.3-9.9 32.35-13.2 35.94-1.1.9-4.4 4.5-7.7 9.9-3.3 4.48-15.4 18.86-27.5 31.43-12.1 12.58-25.3 26.96-29.7 32.35-7.7 8.1-14.3 16.18-19.8 25.16-4.4 6.3-12.1 17.97-13.2 18.87-6.6 8.1-9.9 13.48-9.9 13.48l6.6-13.48c5.5-10.78 8.8-22.46 11-40.43 3.3-17.97 2.2-32.35-4.4-64.7-5.5-25.16-6.6-39.53-6.6-53.9 0-8.1-1.1-14.4-2.2-14.4zM323.2 828.6c-1.1 0-2.2 1.8-2.2 7.2 0 8.08-6.6 43.13-9.9 57.5-1.1 5.4-2.2 22.47-2.2 41.34 0 20.66 0 42.23 11 60.2 3.3 4.5 5.5 9 4.4 9-9.9-8.1-13.2-20.68-22-30.57-3.3-4.5-11-14.37-17.6-21.56-14.3-15.27-46.2-49.4-52.8-55.7-2.2-1.8-4.4-4.5-4.4-5.4 0-.9-2.2-4.48-5.5-8.08-7.7-9.88-16.5-29.65-17.6-37.74 0-3.6-1.1-8.08-2.2-9.88-3.3-5.4-2.2 35.04 1.1 53.9 3.3 19.78 6.6 27.87 16.5 48.53 11 18.87 27.5 39.54 42.9 52.12 5.5 4.5 11 8.98 11 9.88 20.9 14.38 41.8 29.65 61.6 43.13 1.1 0 9.9 5.4 19.8 11.68 22 16.18 22 15.28 15.4-.9-3.3-5.4-6.6-12.57-8.8-17.07-5.5-13.47-12.1-48.52-14.3-79.07-2.2-44.03-11-95.25-17.6-116.8-3.3-7.2-5.5-11.7-6.6-11.7zm815.1 100.65c-1.1 0-4.4 2.7-6.6 7.18-4.4 5.4-8.8 12.58-12.1 15.28-12.1 18.88-24.2 37.75-31.9 59.3 0 .9-1.1 3.6-2.2 5.4-1.1 1.8-5.5 14.38-9.9 26.96-9.9 28.76-13.2 39.54-15.4 44.03-1.1 2.7-4.4 8.08-6.6 12.57-7.7 15.28-16.5 28.75-27.5 39.54l-6.6 7.2c0 1.8 8.8.9 12.1-.9 4.4-1.8 28.6-8.1 44-9.9 27.5-3.58 37.4-6.28 63.8-16.16 16.5-6.3 50.6-30.55 70.4-48.52 16.5-16.18 30.8-36.84 39.6-56.6 6.6-12.6 15.4-41.35 13.2-43.14 0 0-2.2 2.7-4.4 7.2-6.6 11.67-8.8 14.36-19.8 26.94-11 10.8-29.7 26.96-36.3 29.65-1.1.9-5.5 2.7-8.8 5.4-3.3 1.8-12.1 7.18-20.9 10.78-7.7 3.6-16.5 8.1-17.6 8.98-2.2.9-7.7 4.5-13.2 7.2-20.9 11.67-41.8 24.25-59.4 39.53-4.4 3.6-7.7 7.2-8.8 7.2-1.1 0 5.5-8.1 11-13.5 17.6-19.76 29.7-44.02 35.2-70.08 2.2-8.08 4.4-24.26 6.6-35.94 4.4-27.86 8.8-46.72 12.1-55.7 2.2-5.4 2.2-8.1 1.1-9.9zm-778.8 6.3c-4.4 0 7.7 27.84 7.7 34.13 6.6 30.55 7.7 37.74 7.7 43.13 0 13.5 13.2 59.32 19.8 65.6 6.6 11.7 13.2 22.47 24.2 30.56l14.3 13.47-12.1-8.08c-6.6-4.5-13.2-9.9-15.4-10.8-18.7-11.67-36.3-26.94-57.2-35.03-62.7-29.65-86.9-47.62-107.8-80.87-4.4-8.1-5.5-8.98-4.4-3.6 1.1 3.6 2.2 9 2.2 11.7 12.1 33.23 30.8 62.9 57.2 86.25 5.5 5.4 12.1 10.78 14.3 12.58 26.4 21.56 58.3 35.94 91.3 41.33 13.2 2.7 28.6 5.4 35.2 6.3 3.3 0 48.4 12.58 42.9 5.4-5.5 0-25.3-26.06-35.2-47.63-2.2-4.5-5.5-9.88-6.6-12.58-2.2-3.6-5.5-13.5-15.4-43.14-11-32.35-25.3-62-38.5-78.17 0-.9-5.5-7.2-11-14.4-5.5-7.18-9.9-13.47-9.9-14.37-1.1-1.8-2.2-1.8-3.3-1.8zm705.1 107.8c-3.3 0-18.7 11.7-29.7 21.58-5.5 5.4-14.3 13.48-18.7 17.07-4.4 2.7-20.9 18.87-37.4 35.04-26.4 26.06-56.1 49.42-94.6 54.8-3.3 0-5.5.9-6.6 1.8-1.1 1.8 4.4 3.6 11 3.6s24.2 3.6 40.7 9c4.4.9 12.1 2.7 16.5 3.6 4.4.88 16.5 2.68 26.4 5.38 36.3 7.2 74.8 10.78 111.1-1.8 30.8-10.78 59.4-30.55 80.3-55.7 6.6-7.2 20.9-30.56 17.6-29.66-1.1.9-7.7 5.4-13.2 10.78-11 10.78-15.4 13.48-23.1 17.07-2.2.9-7.7 3.6-12.1 6.3-13.2 6.3-39.6 10.78-78.1 14.38-31.9 2.7-63.8 8.98-94.6 10.78 16.5-5.4 33-13.48 47.3-24.26 6.6-6.3 24.2-32.35 30.8-44.93 1.1-3.6 5.5-12.58 8.8-18.87 3.3-6.3 5.5-12.58 5.5-12.58 0-.9 3.3-6.3 6.6-11.68 3.3-6.3 6.6-10.78 5.5-11.68zm-630.3 3.6c-2.2 0 0 3.6 3.3 9.9 8.8 13.47 9.9 15.27 20.9 37.73 14.3 26.96 23.1 40.43 34.1 50.32 8.8 9.88 27.5 19.77 37.4 21.56 4.4.9 8.8 3.6 8.8 3.6s-9.9 0-15.4-1.8c-8.8-1.8-67.1-7.2-97.9-9-39.6-3.58-72.6-15.26-93.5-34.13-12.1-10.78-16.5-10.78-8.8-.9 2.2 3.6 6.6 9 8.8 12.58 18.7 22.47 42.9 43.14 69.3 54.82 3.3 1.8 13.2 5.4 29.7 9.9 17.6 4.48 49.5 4.48 77 .9 12.1-1.8 23.1-3.6 24.2-4.5 0 0 5.5-1.8 11-2.7 4.4-.9 15.4-3.6 24.2-5.4 7.7-2.7 24.2-6.28 35.2-8.98l20.9-4.5-9.9-2.7c-5.5-.9-12.1-3.58-16.5-5.38-16.5-6.3-35.2-11.68-49.5-23.36-4.4-2.7-15.4-12.58-25.3-22.47-26.4-25.16-51.7-49.42-66-60.2-12.1-9.88-19.8-15.27-22-15.27zm376.2 125.8c-11 .9-23.1 1.8-35.2 3.6-2.2.9-7.7 1.8-12.1 2.7-12.1 4.5-15.4 4.5-23.1.9-5.5-2.7-14.3-5.4-47.3-5.4-18.7.9-37.4 1.8-55 8.1-11 1.78-20.9 7.18-31.9 9.87l-24.2 9.9c-6.6 2.68-17.6 7.17-24.2 10.77-17.6 8.07-40.7 13.47-62.7 15.26-22 1.8-46.2-2.7-66-12.58-15.4-7.2-16.5-7.2-16.5-4.5 18.7 21.58 41.8 35.05 68.2 45.84 8.8 4.5 45.1 9.88 56.1 8.08 13.2-1.8 36.3-6.3 40.7-8.08 17.6-6.3 24.2-9.9 39.6-18.87 13.2-8.1 25.3-17.08 38.5-26.06 22-16.18 50.6-26.07 66-21.58 5.5.9 4.4 1.8-12.1 9.9-24.2 12.57-41.8 24.25-66 43.12-23.1 19.77-38.5 34.14-38.5 36.84 1.1.9 5.5 5.4 11 9.88 5.5 4.5 11 8.1 12.1 8.1 1.1 0 4.4-3.6 7.7-7.2 11-14.38 53.9-53.9 63.8-60.2 11-6.3 19.8-15.28 31.9-20.67 4.4-2.7 8.8-5.4 9.9-6.3 6.6-6.3 25.3 0 42.9 13.48l12.1 9.88c13.2 9.9 23.1 17.98 33 26.06 11 10.78 19.8 21.57 31.9 31.45 6.6 7.2 12.1 11.68 15.4 11.68 4.4-.9 19.8-17.97 18.7-20.66-2.2-5.4-33-31.46-58.3-48.54-8.8-6.3-17.6-11.68-17.6-12.58-1.1-.9-3.3-2.7-6.6-4.5-3.3-1.8-13.2-6.28-20.9-10.77l-14.3-8.08 6.6-.9c17.6-3.6 33 .9 59.4 18.87 11 7.18 19.8 15.27 31.9 21.56 30.8 20.67 62.7 30.55 99 30.55 28.6 0 46.2-5.38 73.7-21.56 18.7-9.88 45.1-33.24 42.9-35.94-1.1-.9-6.6 1.8-13.2 5.4-20.9 10.78-35.2 14.37-68.2 14.37-24.2 0-46.2-4.5-68.2-14.38-18.7-9-37.4-16.18-56.1-23.37-7.7-2.7-15.4-4.5-23.1-6.3-11-3.58-27.5-7.18-47.3-7.18h-4.4z" stroke="#a9885c" stroke-opacity=".5" stroke-width=".34" fill="#d4af37"/><path d="M100 982.9a6 6 0 0 1 6-6h1288a6 6 0 0 1 6 6v134.2a6 6 0 0 1-6 6H106a6 6 0 0 1-6-6z" stroke="#000" stroke-opacity="0" stroke-width="3" fill-opacity="0"/><use xlink:href="#a" transform="matrix(1,0,0,1,112,988.8888888888893) translate(11.9692307692344 96.92307692307637)"/><use xlink:href="#b" transform="matrix(1,0,0,1,112,988.8888888888893) translate(611.1384615384617 96.92307692307637)"/><defs><path fill="#702963" d="M894-956c14-28 54-48 93-48 23 0 35 8 35 23l1 341c2 44-86 48-95 11-29-108-52-174-136-223-38-23-77-38-116-41-44-4-42-103 0-107 65-6 184 39 218 44zm7 603c12-33 122-52 136-7-15 96-47 212-82 255C892-28 821 12 688-8c-36-5-31-107 0-111 137-18 196-92 213-234zM542-114c39 4 41 100 3 107C243 47 49-231 49-510c0-244 237-505 479-488 39 3 37 105 0 114-59 15-100 67-115 150-25 139-26 437 30 539 26 47 56 77 99 81" id="c"/><path fill="#702963" d="M1022-433c23-15 74-13 74 18V0H688c-2-81-13-124 84-126 56-1 93-11 111-24 63-47 102-140 114-255 6-13 14-22 25-28zM507 1H59c2-67-9-106 60-121 39-8 58-24 58-43v-659c0-40-20-63-61-63-83 0-58-51-63-115h578l-2 83c0 18-20 30-61 35s-61 28-61 67V1" id="d"/><path fill="#702963" d="M694-997c250 0 458 245 458 502C1152-225 935-2 672-2c-36 0-31-77-1-82 62-10 101-56 124-123 18-51 21-191 21-293 0-187-8-325-123-381-21-2-31-37-30-64 0-26 7-52 31-52zM513-881c-143 37-121 264-121 460 0 123 13 209 38 256 23 43 59 73 107 81 34 5 30 83 0 84C272 9 56-227 56-495c0-257 208-512 458-502 45 2 59 117-1 116" id="e"/><path fill="#702963" d="M822 1c-47 0-49-98-16-120 51 0 88-32 110-96 16-47 24-111 24-193l-1-437c0-19-21-34-63-39-80-10-61-47-64-116l376 2v72c0 11-25 27-76 48-25 11-37 24-37 40v430c2 220-62 409-253 409zM634 2C405 2 190-84 191-288l1-511c0-25-20-44-59-57s-59-32-59-55l1-87h542c-1 70 11 101-49 130-33 16-48 32-48 43l-2 567c1 90 51 133 131 149 17 4 30 39 29 62 0 30-12 49-44 49" id="f"/><path fill="#702963" d="M1244-540C1239-170 1058 2 686 2c-31 0-35-91-3-98 178-39 204-195 204-428 0-230-31-310-209-350-37-8-36-119 2-121 287-12 568 180 564 455zM529 2L78-1l1-85c0-13 17-23 51-32s52-24 52-47l1-685c0-18-18-30-54-35s-54-15-54-30l-1-85 455-1V2" id="g"/><g id="a"><use transform="matrix(0.09230769230769177,0,0,0.09230769230769177,0,0)" xlink:href="#c"/><use transform="matrix(0.09230769230769177,0,0,0.09230769230769177,99.69230769230711,0)" xlink:href="#d"/><use transform="matrix(0.09230769230769177,0,0,0.09230769230769177,206.03076923076804,0)" xlink:href="#e"/><use transform="matrix(0.09230769230769177,0,0,0.09230769230769177,316.61538461538277,0)" xlink:href="#f"/><use transform="matrix(0.09230769230769177,0,0,0.09230769230769177,432.73846153845903,0)" xlink:href="#g"/></g><path fill="#702963" d="M894-956c14-28 54-48 93-48 23 0 35 8 35 23l1 341c2 44-86 48-95 11-29-108-52-174-136-223-38-23-77-38-116-41-44-4-42-103 0-107 65-6 184 39 218 44zm7 603c12-33 122-52 136-7-15 96-47 212-82 255C892-28 821 12 688-8c-36-5-31-107 0-111 137-18 196-92 213-234zM542-114c39 4 41 100 3 107C243 47 49-231 49-510c0-244 237-505 479-488 39 3 37 105 0 114-59 15-100 67-115 150-25 139-26 437 30 539 26 47 56 77 99 81" id="h"/><path fill="#702963" d="M529-287c-36 0-37-90-1-90l154 2-206-444 68-180 245-1 317 828c8 38 110 63 106 90l18 82-601-1c12-60-8-103 70-113 47-6 66-16 53-48-7-51-25-107-51-123-48-2-128-2-172-2zm-62-276c-41 126-102 244-143 372-13 40 10 60 58 69 79 15 55 57 64 124L55-1c-3-69-7-99 53-125 42-19 68-40 77-63l219-524c8 5 16 10 25 15 29 50 53 89 38 135" id="i"/><path fill="#702963" d="M653-455c-42 0-30-111 0-121 60 0 93 11 95-60 2-75 49-59 113-60v348c-59 2-96 15-105-52-8-62-43-55-103-55zm25 354c3-91 159-13 218-69 23-22 40-66 46-138s27-108 62-108h92l1 417H681zm218-729c-59-56-221 22-218-69l3-102h416l-1 401h-92c-35 0-55-32-60-98s-23-108-48-132zM69-62c-12-40 115-54 105-91v-695c0-16-18-30-54-36-63-11-54-56-51-117h451L519 1 67 0" id="j"/><path fill="#702963" d="M667-957c32-1 49-19 66-42h82l2 314-92 3c-23-8-48-126-51-118-36-46-75-89-141-89-26 0-33-32-33-59 0-110 122-7 167-9zm-265 21c0 22-7 51-25 53-63 8-136 87-91 155 36 54 95 83 176 90 114 10 179 18 195 24 106 43 208 140 210 285C870-142 684 8 493-2c-39-2-36-110-6-124 76-9 147-24 147-92 0-46-28-80-83-102-20-8-75-23-165-40C224-390 67-511 64-684c-3-161 143-325 304-315 24 1 34 34 34 63zM201-43c-32 1-49 19-66 42H53l-2-318 92 1c23 8 48 126 51 118 36 46 75 89 141 89 26 0 33 32 33 59 0 110-122 7-167 9" id="k"/><path fill="#702963" d="M1205-746c-1 124-88 192-196 220 68 7 131 53 157 103 28 32 25 202 38 246 7 26 41 41 76 36 35 10 33 97-2 104-57 25-107 33-188 36-184 7-229-104-229-288 0-84-9-119-53-151-26-19-115-25-149-31-39-6-26-91 14-90 123 3 204-47 204-163 0-79-111-161-190-158-43-9-36-116 12-116h187c176 0 320 87 319 252zM61 0c-15-19-9-53 2-74 0-21 17-36 51-44s51-20 51-35l2-695c0-15-17-29-53-35-63-11-54-57-51-118h451v833c0 24 28 40 84 47 88 11 89 42 83 122" id="l"/><g id="b"><use transform="matrix(0.09230769230769177,0,0,0.09230769230769177,0,0)" xlink:href="#h"/><use transform="matrix(0.09230769230769177,0,0,0.09230769230769177,99.69230769230711,0)" xlink:href="#i"/><use transform="matrix(0.09230769230769177,0,0,0.09230769230769177,219.59999999999872,0)" xlink:href="#j"/><use transform="matrix(0.09230769230769177,0,0,0.09230769230769177,326.123076923075,0)" xlink:href="#k"/><use transform="matrix(0.09230769230769177,0,0,0.09230769230769177,409.93846153845914,0)" xlink:href="#i"/><use transform="matrix(0.09230769230769177,0,0,0.09230769230769177,529.8461538461507,0)" xlink:href="#l"/></g></defs></g></svg>